<svg width="1040" height="1040" viewBox="0 0 1040 1040" fill="none" xmlns="http://www.w3.org/2000/svg">
<g filter="url(#filter0_d_1946_10638)">
<rect width="1024" height="1024" transform="translate(6 4)" fill="white"/>
<g filter="url(#filter1_d_1946_10638)">
<path fill-rule="evenodd" clip-rule="evenodd" d="M545.42 106.018C570.399 100.655 595.909 117.011 600.926 142.659C601.674 146.469 601.819 152.062 601.361 159.439C599.588 188.254 597.935 215.637 596.379 241.601C596.367 241.904 596.681 242.11 596.946 241.965C640.499 218.391 686.947 209.995 736.278 216.753C761.184 220.175 784.752 226.812 806.968 236.663C836.337 249.694 868.686 274.275 877.624 307.155C884.547 332.609 875.597 356.546 857.228 374.43C844.238 387.072 829.089 396.766 811.769 403.512C811.19 403.742 811.118 404.531 811.636 404.859C819.995 410.1 827.557 416.13 834.324 422.937C844.841 433.529 850.401 445.989 848.942 461.3C847.109 480.373 836.169 498.985 821.96 512.149C804.086 528.71 782.436 538.342 759.122 544.773C745.89 548.425 733.118 549.99 720.803 549.492C711.613 549.116 701.71 547.091 691.096 543.414C677.648 538.755 664.043 533.732 650.305 528.358C637.339 523.286 625.29 519.089 611.36 519.076C610.938 519.076 609.49 518.809 607.017 518.287C606.631 518.202 606.366 517.863 606.366 517.475C606.354 515.885 607.054 514.575 608.441 513.568C613.663 509.734 622.686 503.073 635.506 493.598C635.904 493.295 636.435 493.234 636.893 493.428C640.499 494.944 643.961 495.999 647.29 496.594C666.925 500.125 682.098 479.184 689.588 463.897C694.135 454.591 698.803 443.926 703.591 431.891C711.516 411.957 719.26 392.326 726.81 373.023C733.287 356.449 739.594 341.659 745.709 328.641C750.027 319.432 754.804 310.806 760.918 303.211C768.71 293.566 777.998 286.65 789.48 278.242C795.161 274.081 800.625 270.234 805.872 266.692C806.233 266.449 806.257 265.916 805.908 265.649C797.501 259.085 787.972 253.807 777.334 249.791C720.683 228.438 652.042 223.014 596.657 251.939C596.09 252.242 595.716 252.812 595.68 253.443L585.416 424.465C585.367 425.108 585.766 425.715 586.369 425.946C600.492 431.296 614.906 431.83 629.632 427.547C651.27 421.238 668.047 404.094 669.953 381.078C671.098 367.296 665.49 352.688 652.729 346.028C648.423 343.783 644.262 343.334 640.27 344.681C638.63 345.227 637.291 345.129 636.085 344.196C635.181 343.504 635.035 342.096 635.735 340.944C636.567 339.573 637.834 338.578 639.522 337.959C650.401 333.907 663.404 331.25 674.958 333.045C687.924 335.071 694.076 347.095 694.908 359.483C698.393 411.18 628.837 447.978 584.777 445.418C584.499 445.394 584.258 445.613 584.234 445.892C581.713 484.753 572.365 640.04 556.215 911.751C555.769 919.407 555.395 924.418 555.118 926.772C555.009 927.691 554.587 922.074 553.864 909.931C547.266 799.511 539.33 667.241 530.031 513.119C529.898 510.851 529.693 509.273 529.416 508.4C529.343 508.169 529.03 508.181 528.969 508.411C526.135 519.549 521.455 530.08 514.954 539.992C497.887 566.017 473.173 587.31 446.144 601.748C403.725 624.4 358.339 634.167 309.973 631.061C286.55 629.556 261.39 623.563 240.85 613.687C228.077 607.56 216.703 597.187 205.981 585.794C187.37 566.006 170.617 541.789 161.547 515.533C160.341 512.051 159.497 507.938 159.014 503.219C157.965 492.955 157.314 482.739 157.048 472.56C156.24 441.391 165.564 413.837 185.031 389.911C185.26 389.633 185.633 389.511 185.983 389.608L198.225 392.92C198.502 392.993 198.611 393.321 198.443 393.551C183.415 413.861 178.336 435.627 180.302 461.615C183.511 503.922 202.326 543.027 233.987 570.992C252.863 587.651 275.02 597.575 300.481 600.766C315.859 602.695 326.919 603.835 333.649 604.211C345.77 604.866 358.507 603.702 371.883 600.717C400.179 594.408 425.532 581.111 447.929 560.813C471.292 539.641 492.773 506.131 488.009 472.911C485.525 455.598 477.19 442.228 462.994 432.813C453.477 426.504 443.057 420.11 431.719 413.643C398.816 394.849 378.927 383.906 351.91 365.585C342.598 359.264 336.218 354.666 332.781 351.766C319.767 340.798 308.67 326.275 304.34 310.03C299.468 291.734 305.185 274.311 314.761 257.35C338.86 214.618 381.195 189.891 429.753 188.241C452.103 187.477 480.845 189.674 499.323 204.027C518.524 218.962 504.991 241.589 495.209 257.131C493.352 260.079 489.347 265.842 485.693 266.303C484.632 266.436 483.692 265.599 483.704 264.52C483.764 259.837 483.642 255.687 483.353 252.072C481.628 230.148 464.007 219.666 444.577 214.157C418.343 206.744 388.492 207.181 364.55 220.139C346.06 230.148 332.515 248.845 330.766 270.065C328.861 293.347 341.176 307.263 357.989 321.228C369.242 330.582 378.879 337.571 386.923 342.218C400.01 349.777 428.571 366.119 472.619 391.27C480.832 395.965 489.034 401.911 497.211 409.106C510.081 420.438 519.417 434.414 525.833 449.883C525.87 449.98 525.966 450.029 526.062 450.005C526.158 449.981 526.219 449.883 526.219 449.786C525.652 439.753 524.989 428.432 524.205 415.826C523.879 410.573 523.734 408.753 521.515 404.277C510.045 381.115 509.791 354.435 518.331 329.866C518.704 328.799 518.729 325.304 518.391 319.396C517.462 303.174 514.374 251.804 509.116 165.286C508.38 153.251 508.501 145.207 509.466 141.143C513.652 123.599 527.727 109.803 545.42 106.018ZM745.962 409.882C745.468 409.773 744.974 410.04 744.781 410.501C734.842 433.565 723.83 457.952 707.572 475.387C696.729 487.022 683.474 495.588 667.806 501.109C667.372 501.254 667.347 501.86 667.769 502.042C692.398 512.355 717.86 522.376 742.658 526.95C760.038 530.153 777.985 529.924 792.278 520.205C805.75 511.045 814.688 498.718 819.09 483.225C829.463 446.608 796.487 422.537 765.912 414.445C761.907 413.377 755.261 411.86 745.962 409.882ZM822.792 276.386C815.954 270.793 810.466 275.889 806.292 281.324C788.165 304.959 777.177 330.656 764.645 361.036C760.339 371.482 755.455 383.737 750.003 397.798C749.931 398.004 750.148 398.186 750.329 398.065C755.286 394.874 759.785 391.95 763.826 389.293C765.237 388.359 766.624 388.044 767.987 388.335C781.447 391.296 791.482 393.358 803.603 392.606C822.563 391.429 839.063 381.213 847.108 363.705C857.095 341.939 854.803 319.13 841.994 298.783C836.204 289.587 829.8 282.125 822.792 276.386ZM556.541 132.115C550.305 132.116 546.193 136.314 544.335 142.052C543.817 143.641 543.901 146.615 544.588 150.934C544.987 153.435 548.87 180.248 556.227 231.385C556.311 231.919 556.433 232.186 556.614 232.186C556.782 232.185 556.915 231.918 556.987 231.385C564.284 180.234 568.132 153.408 568.53 150.921C569.217 146.59 569.289 143.63 568.771 142.029C566.901 136.302 562.788 132.103 556.541 132.115Z" fill="url(#paint0_linear_1946_10638)"/>
</g>
</g>
<defs>
<filter id="filter0_d_1946_10638" x="0" y="0" width="1040" height="1040" filterUnits="userSpaceOnUse" color-interpolation-filters="sRGB">
<feFlood flood-opacity="0" result="BackgroundImageFix"/>
<feColorMatrix in="SourceAlpha" type="matrix" values="0 0 0 0 0 0 0 0 0 0 0 0 0 0 0 0 0 0 127 0" result="hardAlpha"/>
<feOffset dx="2" dy="4"/>
<feGaussianBlur stdDeviation="4"/>
<feComposite in2="hardAlpha" operator="out"/>
<feColorMatrix type="matrix" values="0 0 0 0 0 0 0 0 0 0 0 0 0 0 0 0 0 0 0.15 0"/>
<feBlend mode="normal" in2="BackgroundImageFix" result="effect1_dropShadow_1946_10638"/>
<feBlend mode="normal" in="SourceGraphic" in2="effect1_dropShadow_1946_10638" result="shape"/>
</filter>
<filter id="filter1_d_1946_10638" x="149" y="101" width="738.96" height="837.869" filterUnits="userSpaceOnUse" color-interpolation-filters="sRGB">
<feFlood flood-opacity="0" result="BackgroundImageFix"/>
<feColorMatrix in="SourceAlpha" type="matrix" values="0 0 0 0 0 0 0 0 0 0 0 0 0 0 0 0 0 0 127 0" result="hardAlpha"/>
<feOffset dy="4"/>
<feGaussianBlur stdDeviation="4"/>
<feComposite in2="hardAlpha" operator="out"/>
<feColorMatrix type="matrix" values="0 0 0 0 0 0 0 0 0 0 0 0 0 0 0 0 0 0 0.15 0"/>
<feBlend mode="normal" in2="BackgroundImageFix" result="effect1_dropShadow_1946_10638"/>
<feBlend mode="normal" in="SourceGraphic" in2="effect1_dropShadow_1946_10638" result="shape"/>
</filter>
<linearGradient id="paint0_linear_1946_10638" x1="518.48" y1="105" x2="518.48" y2="926.869" gradientUnits="userSpaceOnUse">
<stop stop-color="#111A81"/>
<stop offset="1" stop-color="#04051B"/>
</linearGradient>
</defs>
</svg>
