<svg width="1024" height="1024" viewBox="0 0 1024 1024" fill="none" xmlns="http://www.w3.org/2000/svg">
<g clip-path="url(#clip0_2248_7681)">
<g filter="url(#filter0_d_2248_7681)">
<path d="M0 525.846V500.513C3.6331 387.465 39.3606 287.083 107.183 199.392C171.287 116.497 261.209 54.2112 361.452 23.4992C508.936 -21.6885 669.3 1.91938 797.086 87.7528C924.715 173.477 1007.88 312.294 1021.89 466.583C1032.24 580.396 1004.32 694.355 942.446 790.232C883.073 882.222 795.3 953.398 693.138 992.015C550.457 1045.96 389.708 1033.23 257.878 957.551C203.659 926.426 156.815 886.982 117.334 839.208C44.0921 750.569 3.40377 641.711 0 525.846Z" fill="url(#paint0_linear_2248_7681)"/>
</g>
<g filter="url(#filter1_i_2248_7681)">
<path fill-rule="evenodd" clip-rule="evenodd" d="M539.42 102.018C564.399 96.6552 589.909 113.011 594.926 138.659C595.674 142.469 595.819 148.062 595.361 155.439C593.588 184.254 591.935 211.637 590.379 237.601C590.367 237.904 590.681 238.11 590.946 237.965C634.499 214.391 680.947 205.995 730.278 212.753C755.184 216.175 778.752 222.812 800.968 232.663C830.337 245.694 862.686 270.275 871.624 303.155C878.547 328.609 869.597 352.546 851.228 370.43C838.238 383.072 823.089 392.766 805.769 399.512C805.19 399.742 805.118 400.531 805.636 400.859C813.995 406.1 821.557 412.13 828.324 418.937C838.841 429.529 844.401 441.989 842.942 457.3C841.109 476.373 830.169 494.985 815.96 508.149C798.086 524.71 776.436 534.342 753.122 540.773C739.89 544.425 727.118 545.99 714.803 545.492C705.613 545.116 695.71 543.091 685.096 539.414C671.648 534.755 658.043 529.732 644.305 524.358C631.339 519.286 619.29 515.089 605.36 515.076C604.938 515.076 603.49 514.809 601.017 514.287C600.631 514.202 600.366 513.863 600.366 513.475C600.354 511.885 601.054 510.575 602.441 509.568C607.663 505.734 616.686 499.073 629.506 489.598C629.904 489.295 630.435 489.234 630.893 489.428C634.499 490.944 637.961 491.999 641.29 492.594C660.925 496.125 676.098 475.184 683.588 459.897C688.135 450.591 692.803 439.926 697.591 427.891C705.516 407.957 713.26 388.326 720.81 369.023C727.287 352.449 733.594 337.659 739.709 324.641C744.027 315.432 748.804 306.806 754.918 299.211C762.71 289.566 771.998 282.65 783.48 274.242C789.161 270.081 794.625 266.234 799.872 262.692C800.233 262.449 800.257 261.916 799.908 261.649C791.501 255.085 781.972 249.807 771.334 245.791C714.683 224.438 646.042 219.014 590.657 247.939C590.09 248.242 589.716 248.812 589.68 249.443L579.416 420.465C579.367 421.108 579.766 421.715 580.369 421.946C594.492 427.296 608.906 427.83 623.632 423.547C645.27 417.238 662.047 400.094 663.953 377.078C665.098 363.296 659.49 348.688 646.729 342.028C642.423 339.783 638.262 339.334 634.27 340.681C632.63 341.227 631.291 341.129 630.085 340.196C629.181 339.504 629.035 338.096 629.735 336.944C630.567 335.573 631.834 334.578 633.522 333.959C644.401 329.907 657.404 327.25 668.958 329.045C681.924 331.071 688.076 343.095 688.908 355.483C692.393 407.18 622.837 443.978 578.777 441.418C578.499 441.394 578.258 441.613 578.234 441.892C575.713 480.753 566.365 636.04 550.215 907.751C549.769 915.407 549.395 920.418 549.118 922.772C549.009 923.691 548.587 918.074 547.864 905.931C541.266 795.511 533.33 663.241 524.031 509.119C523.898 506.851 523.693 505.273 523.416 504.4C523.343 504.169 523.03 504.181 522.969 504.411C520.135 515.549 515.455 526.08 508.954 535.992C491.887 562.017 467.173 583.31 440.144 597.748C397.725 620.4 352.339 630.167 303.973 627.061C280.55 625.556 255.39 619.563 234.85 609.687C222.077 603.56 210.703 593.187 199.981 581.794C181.37 562.006 164.617 537.789 155.547 511.533C154.341 508.051 153.497 503.938 153.014 499.219C151.965 488.955 151.314 478.739 151.048 468.56C150.24 437.391 159.564 409.837 179.031 385.911C179.26 385.633 179.633 385.511 179.983 385.608L192.225 388.92C192.502 388.993 192.611 389.321 192.443 389.551C177.415 409.861 172.336 431.627 174.302 457.615C177.511 499.922 196.326 539.027 227.987 566.992C246.863 583.651 269.02 593.575 294.481 596.766C309.859 598.695 320.919 599.835 327.649 600.211C339.77 600.866 352.507 599.702 365.883 596.717C394.179 590.408 419.532 577.111 441.929 556.813C465.292 535.641 486.773 502.131 482.009 468.911C479.525 451.598 471.19 438.228 456.994 428.813C447.477 422.504 437.057 416.11 425.719 409.643C392.816 390.849 372.927 379.906 345.91 361.585C336.598 355.264 330.218 350.666 326.781 347.766C313.767 336.798 302.67 322.275 298.34 306.03C293.468 287.734 299.185 270.311 308.761 253.35C332.86 210.618 375.195 185.891 423.753 184.241C446.103 183.477 474.845 185.674 493.323 200.027C512.524 214.962 498.991 237.589 489.209 253.131C487.352 256.079 483.347 261.842 479.693 262.303C478.632 262.436 477.692 261.599 477.704 260.52C477.764 255.837 477.642 251.687 477.353 248.072C475.628 226.148 458.007 215.666 438.577 210.157C412.343 202.744 382.492 203.181 358.55 216.139C340.06 226.148 326.515 244.845 324.766 266.065C322.861 289.347 335.176 303.263 351.989 317.228C363.242 326.582 372.879 333.571 380.923 338.218C394.01 345.777 422.571 362.119 466.619 387.27C474.832 391.965 483.034 397.911 491.211 405.106C504.081 416.438 513.417 430.414 519.833 445.883C519.87 445.98 519.966 446.029 520.062 446.005C520.158 445.981 520.219 445.883 520.219 445.786C519.652 435.753 518.989 424.432 518.205 411.826C517.879 406.573 517.734 404.753 515.515 400.277C504.045 377.115 503.791 350.435 512.331 325.866C512.704 324.799 512.729 321.304 512.391 315.396C511.462 299.174 508.374 247.804 503.116 161.286C502.38 149.251 502.501 141.207 503.466 137.143C507.652 119.599 521.727 105.803 539.42 102.018ZM739.962 405.882C739.468 405.773 738.974 406.04 738.781 406.501C728.842 429.565 717.83 453.952 701.572 471.387C690.729 483.022 677.474 491.588 661.806 497.109C661.372 497.254 661.347 497.86 661.769 498.042C686.398 508.355 711.86 518.376 736.658 522.95C754.038 526.153 771.985 525.924 786.278 516.205C799.75 507.045 808.688 494.718 813.09 479.225C823.463 442.608 790.487 418.537 759.912 410.445C755.907 409.377 749.261 407.86 739.962 405.882ZM816.792 272.386C809.954 266.793 804.466 271.889 800.292 277.324C782.165 300.959 771.177 326.656 758.645 357.036C754.339 367.482 749.455 379.737 744.003 393.798C743.931 394.004 744.148 394.186 744.329 394.065C749.286 390.874 753.785 387.95 757.826 385.293C759.237 384.359 760.624 384.044 761.987 384.335C775.447 387.296 785.482 389.358 797.603 388.606C816.563 387.429 833.063 377.213 841.108 359.705C851.095 337.939 848.803 315.13 835.994 294.783C830.204 285.587 823.8 278.125 816.792 272.386ZM550.541 128.115C544.305 128.116 540.193 132.314 538.335 138.052C537.817 139.641 537.901 142.615 538.588 146.934C538.987 149.435 542.87 176.248 550.227 227.385C550.311 227.919 550.433 228.186 550.614 228.186C550.782 228.185 550.915 227.918 550.987 227.385C558.284 176.234 562.132 149.408 562.53 146.921C563.217 142.59 563.289 139.63 562.771 138.029C560.901 132.302 556.788 128.103 550.541 128.115Z" fill="white"/>
</g>
</g>
<defs>
<filter id="filter0_d_2248_7681" x="-6" y="-3" width="1040" height="1040" filterUnits="userSpaceOnUse" color-interpolation-filters="sRGB">
<feFlood flood-opacity="0" result="BackgroundImageFix"/>
<feColorMatrix in="SourceAlpha" type="matrix" values="0 0 0 0 0 0 0 0 0 0 0 0 0 0 0 0 0 0 127 0" result="hardAlpha"/>
<feOffset dx="2" dy="4"/>
<feGaussianBlur stdDeviation="4"/>
<feComposite in2="hardAlpha" operator="out"/>
<feColorMatrix type="matrix" values="0 0 0 0 0 0 0 0 0 0 0 0 0 0 0 0 0 0 0.15 0"/>
<feBlend mode="normal" in2="BackgroundImageFix" result="effect1_dropShadow_2248_7681"/>
<feBlend mode="normal" in="SourceGraphic" in2="effect1_dropShadow_2248_7681" result="shape"/>
</filter>
<filter id="filter1_i_2248_7681" x="151" y="101" width="722.96" height="825.869" filterUnits="userSpaceOnUse" color-interpolation-filters="sRGB">
<feFlood flood-opacity="0" result="BackgroundImageFix"/>
<feBlend mode="normal" in="SourceGraphic" in2="BackgroundImageFix" result="shape"/>
<feColorMatrix in="SourceAlpha" type="matrix" values="0 0 0 0 0 0 0 0 0 0 0 0 0 0 0 0 0 0 127 0" result="hardAlpha"/>
<feOffset dy="4"/>
<feGaussianBlur stdDeviation="4"/>
<feComposite in2="hardAlpha" operator="arithmetic" k2="-1" k3="1"/>
<feColorMatrix type="matrix" values="0 0 0 0 0 0 0 0 0 0 0 0 0 0 0 0 0 0 0.15 0"/>
<feBlend mode="normal" in2="shape" result="effect1_innerShadow_2248_7681"/>
</filter>
<linearGradient id="paint0_linear_2248_7681" x1="512" y1="1" x2="512" y2="1025" gradientUnits="userSpaceOnUse">
<stop stop-color="#111A81"/>
<stop offset="1" stop-color="#1A2947"/>
</linearGradient>
<clipPath id="clip0_2248_7681">
<rect width="1024" height="1024" fill="white"/>
</clipPath>
</defs>
</svg>
